<?xml version="1.0" encoding="utf-8"?>
<!-- Generator: Adobe Illustrator 26.0.0, SVG Export Plug-In . SVG Version: 6.00 Build 0)  -->
<svg version="1.1" id="Capa_1" xmlns="http://www.w3.org/2000/svg" xmlns:xlink="http://www.w3.org/1999/xlink" x="0px" y="0px"
	 viewBox="0 0 510 510" style="enable-background:new 0 0 510 510;" xml:space="preserve">
<style type="text/css">
	.st0{fill:#FFFFFF;}
</style>
<circle class="st0" cx="153" cy="459" r="51"/>
<path class="st0" d="M0,0v51h51l91.8,193.8L107.1,306c-2.6,7.6-5.1,17.9-5.1,25.5c0,28,22.9,51,51,51h280.5
	c14.1,0,25.5-11.4,25.5-25.5v0c0-14.1-11.4-25.5-25.5-25.5H163.2c0-2.8-2.3-5.1-5.1-5.1v-2.6l22.9-43.4h188.7
	c20.4,0,35.7-10.2,43.4-25.5l91.8-165.7c6.4-6.4,4.7-8.8,5.2-17.4c-11.5-0.1-20.3-9.4-19.6-20.9l-383.4,0L84.2,0H0z"/>
<circle class="st0" cx="408" cy="459" r="51"/>
</svg>
